<?xml version="1.0" encoding="UTF-8"?>
<!DOCTYPE svg PUBLIC "-//W3C//DTD SVG 1.1//EN" "http://www.w3.org/Graphics/SVG/1.1/DTD/svg11.dtd">
<svg xmlns="http://www.w3.org/2000/svg" version="1.1" width="1172px" height="1196px" style="shape-rendering:geometricPrecision; text-rendering:geometricPrecision; image-rendering:optimizeQuality; fill-rule:evenodd; clip-rule:evenodd" xmlns:xlink="http://www.w3.org/1999/xlink">
<g><path style="opacity:1" fill="#000000" d="M -0.5,-0.5 C 390.167,-0.5 780.833,-0.5 1171.5,-0.5C 1171.5,398.167 1171.5,796.833 1171.5,1195.5C 780.833,1195.5 390.167,1195.5 -0.5,1195.5C -0.5,796.833 -0.5,398.167 -0.5,-0.5 Z"/></g>
<g><path style="opacity:1" fill="#f5f4f0" d="M 646.5,85.5 C 738.099,79.3185 824.433,97.4852 905.5,140C 937.669,157.686 966.502,179.853 992,206.5C 994.134,208.578 993.968,210.412 991.5,212C 989.5,212.667 987.5,212.667 985.5,212C 949.045,190.773 911.045,172.773 871.5,158C 723.375,105.394 592.375,132.728 478.5,240C 452.862,264.965 428.695,291.132 406,318.5C 376.615,356.884 347.615,395.55 319,434.5C 286.905,475.429 250.072,511.429 208.5,542.5C 211.845,543.559 215.178,543.392 218.5,542C 259.507,528.333 297.174,508.667 331.5,483C 353.122,466.38 374.455,449.38 395.5,432C 445.798,387.37 495.798,342.37 545.5,297C 622.777,225.132 714.111,195.465 819.5,208C 886.89,216.458 948.89,239.124 1005.5,276C 1039.38,300.898 1062.88,333.398 1076,373.5C 1077.77,385.876 1072.93,389.376 1061.5,384C 1026.05,362.444 989.055,343.777 950.5,328C 840.238,284.72 735.238,294.72 635.5,358C 600.664,380.432 567.997,405.765 537.5,434C 504.799,464.369 471.799,494.369 438.5,524C 415.617,544.77 390.95,563.104 364.5,579C 358.5,582 352.5,585 346.5,588C 318.013,597.94 289.68,608.273 261.5,619C 230.728,632.296 203.894,651.129 181,675.5C 151.135,711.951 141.801,753.285 153,799.5C 154.72,808.26 157.554,816.593 161.5,824.5C 154.54,749.03 187.207,700.863 259.5,680C 270.04,677.031 280.707,674.698 291.5,673C 332.336,668.479 373.003,662.812 413.5,656C 455.682,648.17 494.349,632.17 529.5,608C 539.5,600 549.5,592 559.5,584C 607.5,539.333 655.5,494.667 703.5,450C 780.628,391.425 864.962,378.425 956.5,411C 970.281,416.391 983.948,422.057 997.5,428C 1002.17,428.667 1006.83,428.667 1011.5,428C 1019.9,423.469 1028.56,419.469 1037.5,416C 1054.39,414.193 1066.23,421.027 1073,436.5C 1083.54,492.339 1094.88,548.006 1107,603.5C 1107.67,612.5 1107.67,621.5 1107,630.5C 1104.65,641.23 1101.98,651.897 1099,662.5C 1098.03,666.944 1097.53,671.444 1097.5,676C 1102.59,724.485 1102.76,772.985 1098,821.5C 1094.46,847.207 1088.63,872.374 1080.5,897C 1066.33,938.167 1052.17,979.333 1038,1020.5C 1033.23,1037.9 1029.9,1055.56 1028,1073.5C 1023.74,1087.76 1015.57,1099.26 1003.5,1108C 984.276,1121.15 962.943,1128.15 939.5,1129C 896.855,1129.87 855.522,1122.87 815.5,1108C 767.388,1090.61 722.055,1067.94 679.5,1040C 643.579,1015.41 613.746,984.913 590,948.5C 573.847,920.376 564.347,890.209 561.5,858C 558.833,857.333 556.167,857.333 553.5,858C 546.5,860.333 539.5,862.667 532.5,865C 523.5,865.667 514.5,865.667 505.5,865C 500.095,863.977 495.095,861.977 490.5,859C 460.346,833.18 446.179,800.347 448,760.5C 455.05,728.114 474.55,707.28 506.5,698C 545.847,692.377 584.18,696.377 621.5,710C 665.903,725.101 704.737,748.935 738,781.5C 754.32,798.462 766.32,818.129 774,840.5C 775.712,846.057 777.045,851.724 778,857.5C 778.938,921.223 805.438,971.056 857.5,1007C 885.765,1025.76 916.765,1037.42 950.5,1042C 973.994,1047.05 994.161,1041.22 1011,1024.5C 1018.06,1014.94 1020.72,1004.27 1019,992.5C 1017.47,986.28 1013.63,983.78 1007.5,985C 1004.5,986 1001.5,987 998.5,988C 982.152,995.45 965.485,1002.12 948.5,1008C 936.041,1012.12 923.374,1013.12 910.5,1011C 901.972,1008.79 895.472,1003.96 891,996.5C 889.993,991.889 890.66,987.555 893,983.5C 902.21,973.325 913.377,965.825 926.5,961C 948.462,951.875 971.296,946.708 995,945.5C 999.833,945.667 1004.67,945.833 1009.5,946C 1014.6,947.717 1019.6,949.717 1024.5,952C 1025.83,952.667 1027.17,952.667 1028.5,952C 1031.01,947.157 1030.84,942.324 1028,937.5C 1024.17,932.503 1020.83,927.17 1018,921.5C 1017.54,916.92 1019.38,913.42 1023.5,911C 1034.48,908.432 1043.64,902.932 1051,894.5C 1055.27,886.012 1055.6,877.346 1052,868.5C 1044.27,851.379 1036.27,834.379 1028,817.5C 1017.85,795.442 1012.68,772.276 1012.5,748C 1011.42,728.918 1016.92,712.084 1029,697.5C 1037.07,690.548 1045.24,683.714 1053.5,677C 1068.94,659.653 1074.44,639.486 1070,616.5C 1064.95,587.527 1058.62,558.86 1051,530.5C 1049.25,519.819 1044.08,511.319 1035.5,505C 1009.56,488.697 982.228,475.03 953.5,464C 855.802,438.103 793.302,473.603 766,570.5C 764.033,587.18 764.033,603.847 766,620.5C 768.547,628.368 772.714,635.201 778.5,641C 784.153,645.158 790.486,646.992 797.5,646.5C 819.063,643.255 840.729,640.921 862.5,639.5C 898.567,638.686 930.234,649.853 957.5,673C 964.81,679.972 970.977,687.805 976,696.5C 978.654,705.843 976.154,713.343 968.5,719C 965.634,720.457 962.634,720.79 959.5,720C 955.941,718.772 952.608,717.106 949.5,715C 934.127,702.974 917.46,692.974 899.5,685C 858.042,669.428 820.376,675.761 786.5,704C 778.95,711.048 771.95,718.548 765.5,726.5C 766.333,726.833 767.167,727.167 768,727.5C 809.734,718.009 851.901,715.176 894.5,719C 913.125,719.642 928.625,726.809 941,740.5C 950.675,755.657 947.841,767.823 932.5,777C 925.764,780.101 918.764,782.435 911.5,784C 894.167,784.667 876.833,784.667 859.5,784C 838.097,782.31 818.43,775.644 800.5,764C 795.883,760.727 792.883,756.394 791.5,751C 792.138,747.707 794.138,746.707 797.5,748C 800.833,752.667 804.833,756.667 809.5,760C 832.467,771.427 856.801,776.927 882.5,776.5C 900.082,777.889 916.748,774.722 932.5,767C 938.485,760.267 938.985,753.1 934,745.5C 925.66,736.745 915.494,731.245 903.5,729C 870.812,724.356 838.145,724.689 805.5,730C 788.035,732.46 770.702,735.626 753.5,739.5C 752.558,739.392 751.725,739.059 751,738.5C 750.333,736.5 750.333,734.5 751,732.5C 770.985,700.084 799.485,679.251 836.5,670C 865.937,665.406 893.603,670.406 919.5,685C 932.833,693.667 946.167,702.333 959.5,711C 964.985,711.693 967.985,709.193 968.5,703.5C 967.398,698.63 965.232,694.297 962,690.5C 929.32,655.605 889.153,641.771 841.5,649C 827.552,651.624 813.552,653.79 799.5,655.5C 780.52,655.087 767.353,646.087 760,628.5C 753.065,606.305 752.732,583.972 759,561.5C 785.81,472.167 845.31,435.333 937.5,451C 953.793,454.542 969.459,459.875 984.5,467C 1003.31,476.238 1021.65,486.238 1039.5,497C 1043.33,500.167 1047.17,503.333 1051,506.5C 1053.53,510.904 1055.53,515.571 1057,520.5C 1066.19,551.745 1073.53,583.412 1079,615.5C 1084.68,650.285 1072.85,677.118 1043.5,696C 1023.81,713.889 1016.64,736.056 1022,762.5C 1024.63,782.725 1030.3,802.058 1039,820.5C 1046.27,834.711 1053.27,849.044 1060,863.5C 1068.4,885.644 1062.23,902.144 1041.5,913C 1036.77,914.782 1032.27,916.949 1028,919.5C 1027.33,920.5 1027.33,921.5 1028,922.5C 1034.21,928.581 1038.04,935.915 1039.5,944.5C 1039.04,951.92 1036.04,958.086 1030.5,963C 1025.22,964.554 1020.89,962.887 1017.5,958C 1014.38,956.107 1011.05,954.774 1007.5,954C 973.995,952.543 942.661,960.209 913.5,977C 893.348,990.566 895.348,999.566 919.5,1004C 923.5,1004.67 927.5,1004.67 931.5,1004C 939.271,1002.08 946.938,999.743 954.5,997C 970.703,990.267 987.037,983.933 1003.5,978C 1017.1,974.039 1025.27,978.873 1028,992.5C 1029.81,1018.06 1018.97,1035.89 995.5,1046C 981.25,1051.1 966.583,1052.76 951.5,1051C 886.857,1042.12 835.357,1011.62 797,959.5C 787.277,943.675 780.277,926.675 776,908.5C 772.586,889.934 769.919,871.267 768,852.5C 762.133,828.424 750.799,807.424 734,789.5C 684.215,740.538 624.381,712.038 554.5,704C 525.269,698.807 499.269,705.473 476.5,724C 460.129,740.119 453.962,759.619 458,782.5C 461.819,809.643 473.653,832.476 493.5,851C 506.887,858.072 520.887,859.405 535.5,855C 542.231,852.867 548.898,850.534 555.5,848C 563.543,845.769 568.71,848.602 571,856.5C 575.251,904.298 593.251,945.965 625,981.5C 654.851,1012.7 688.684,1038.54 726.5,1059C 773.736,1084.46 823.403,1103.46 875.5,1116C 911.779,1124.73 947.445,1122.73 982.5,1110C 998.154,1104.01 1009.65,1093.51 1017,1078.5C 1020.03,1058.66 1024.03,1038.99 1029,1019.5C 1039.87,985.555 1051.54,951.889 1064,918.5C 1084.79,863.065 1094.29,805.732 1092.5,746.5C 1092.37,723.959 1091.37,701.459 1089.5,679C 1089.67,673.5 1089.83,668 1090,662.5C 1093.14,650.95 1095.8,639.283 1098,627.5C 1098.68,617.137 1098.35,606.804 1097,596.5C 1085.14,544.044 1074.14,491.377 1064,438.5C 1059.47,426.815 1050.97,422.315 1038.5,425C 1036.12,425.511 1033.79,426.178 1031.5,427C 1026.28,430.779 1020.61,433.779 1014.5,436C 1009.22,437.359 1003.89,437.692 998.5,437C 984.271,431.923 970.271,426.256 956.5,420C 898.548,398.479 840.215,397.145 781.5,416C 756.667,425.076 734.001,437.743 713.5,454C 699.871,465.294 686.537,476.961 673.5,489C 634.769,526.401 595.436,563.067 555.5,599C 507.046,638.839 451.379,662.172 388.5,669C 351.132,673.782 313.799,678.782 276.5,684C 195.576,701.375 161.409,750.875 174,832.5C 176.555,844.386 179.888,856.053 184,867.5C 185.475,872.063 186.308,876.73 186.5,881.5C 182.574,881.953 179.408,880.62 177,877.5C 157.899,848.202 145.899,816.202 141,781.5C 136.061,739.556 147.061,702.556 174,670.5C 203.77,639.015 239.27,616.182 280.5,602C 301.318,595.061 321.985,587.728 342.5,580C 357.937,572.867 372.604,564.534 386.5,555C 431.945,518.901 475.612,480.567 517.5,440C 544.664,414.827 572.997,391.161 602.5,369C 637.592,343.784 675.592,323.784 716.5,309C 776.898,290.385 837.898,288.385 899.5,303C 954.222,317.698 1005.55,340.031 1053.5,370C 1057.47,372.659 1061.81,374.159 1066.5,374.5C 1051.95,329.78 1024.29,295.613 983.5,272C 909.794,229.741 830.461,210.741 745.5,215C 687.229,220.155 634.562,239.822 587.5,274C 571.649,286.762 555.982,299.762 540.5,313C 492.878,356.801 444.878,400.135 396.5,443C 361.632,473.102 324.298,499.769 284.5,523C 258.849,537.827 231.515,548.161 202.5,554C 194.833,554.667 187.167,554.667 179.5,554C 178.14,552.062 178.473,550.396 180.5,549C 208.109,532.735 233.442,513.401 256.5,491C 278.487,469.022 298.987,445.855 318,421.5C 353.916,370.358 392.25,321.024 433,273.5C 474.447,226.567 522.613,188.4 577.5,159C 660.283,119.073 745.95,111.74 834.5,137C 871.796,147.647 907.796,161.647 942.5,179C 945.089,180.314 947.756,180.981 950.5,181C 875.76,124.878 791.427,96.2117 697.5,95C 661.632,91.1101 626.965,95.7768 593.5,109C 569.769,119.361 547.436,132.028 526.5,147C 505.582,163.247 485.249,180.247 465.5,198C 416.508,245.986 369.342,295.486 324,346.5C 285.714,388.491 244.214,426.658 199.5,461C 172.901,479.97 144.234,495.303 113.5,507C 90.029,514.134 66.029,518.468 41.5,520C 70.5855,550.883 105.252,573.217 145.5,587C 165.561,591.525 185.894,593.359 206.5,592.5C 207.145,595.547 206.145,597.713 203.5,599C 174.347,603.02 146.347,599.02 119.5,587C 82.8058,569.974 51.6391,545.807 26,514.5C 25.2506,513.365 25.4173,512.365 26.5,511.5C 27.7946,510.902 29.1279,510.402 30.5,510C 60.0735,511.347 88.7401,507.014 116.5,497C 156.407,481.063 192.407,459.063 224.5,431C 257.907,401.929 289.74,371.096 320,338.5C 366.731,286.099 415.231,235.266 465.5,186C 489.109,163.714 514.442,143.714 541.5,126C 573.782,105.182 608.782,91.6821 646.5,85.5 Z"/></g>
</svg>
