<svg width="1172" height="1196" viewBox="0 0 1172 1196" fill="current" stroke="current" xmlns="http://www.w3.org/2000/svg">
<g clip-path="url(#clip0_22_41)">
<path fill-rule="evenodd" clip-rule="evenodd" d="M646.5 85.5C738.099 79.3185 824.433 97.4852 905.5 140C937.669 157.686 966.502 179.853 992 206.5C994.134 208.578 993.968 210.412 991.5 212C989.5 212.667 987.5 212.667 985.5 212C949.045 190.773 911.045 172.773 871.5 158C723.375 105.394 592.375 132.728 478.5 240C452.862 264.965 428.695 291.132 406 318.5C376.615 356.884 347.615 395.55 319 434.5C286.905 475.429 250.072 511.429 208.5 542.5C211.845 543.559 215.178 543.392 218.5 542C259.507 528.333 297.174 508.667 331.5 483C353.122 466.38 374.455 449.38 395.5 432C445.798 387.37 495.798 342.37 545.5 297C622.777 225.132 714.111 195.465 819.5 208C886.89 216.458 948.89 239.124 1005.5 276C1039.38 300.898 1062.88 333.398 1076 373.5C1077.77 385.876 1072.93 389.376 1061.5 384C1026.05 362.444 989.055 343.777 950.5 328C840.238 284.72 735.238 294.72 635.5 358C600.664 380.432 567.997 405.765 537.5 434C504.799 464.369 471.799 494.369 438.5 524C415.617 544.77 390.95 563.104 364.5 579C358.5 582 352.5 585 346.5 588C318.013 597.94 289.68 608.273 261.5 619C230.728 632.296 203.894 651.129 181 675.5C151.135 711.951 141.801 753.285 153 799.5C154.72 808.26 157.554 816.593 161.5 824.5C154.54 749.03 187.207 700.863 259.5 680C270.04 677.031 280.707 674.698 291.5 673C332.336 668.479 373.003 662.812 413.5 656C455.682 648.17 494.349 632.17 529.5 608C539.5 600 549.5 592 559.5 584C607.5 539.333 655.5 494.667 703.5 450C780.628 391.425 864.962 378.425 956.5 411C970.281 416.391 983.948 422.057 997.5 428C1002.17 428.667 1006.83 428.667 1011.5 428C1019.9 423.469 1028.56 419.469 1037.5 416C1054.39 414.193 1066.23 421.027 1073 436.5C1083.54 492.339 1094.88 548.006 1107 603.5C1107.67 612.5 1107.67 621.5 1107 630.5C1104.65 641.23 1101.98 651.897 1099 662.5C1098.03 666.944 1097.53 671.444 1097.5 676C1102.59 724.485 1102.76 772.985 1098 821.5C1094.46 847.207 1088.63 872.374 1080.5 897C1066.33 938.167 1052.17 979.333 1038 1020.5C1033.23 1037.9 1029.9 1055.56 1028 1073.5C1023.74 1087.76 1015.57 1099.26 1003.5 1108C984.276 1121.15 962.943 1128.15 939.5 1129C896.855 1129.87 855.522 1122.87 815.5 1108C767.388 1090.61 722.055 1067.94 679.5 1040C643.579 1015.41 613.746 984.913 590 948.5C573.847 920.376 564.347 890.209 561.5 858C558.833 857.333 556.167 857.333 553.5 858C546.5 860.333 539.5 862.667 532.5 865C523.5 865.667 514.5 865.667 505.5 865C500.095 863.977 495.095 861.977 490.5 859C460.346 833.18 446.179 800.347 448 760.5C455.05 728.114 474.55 707.28 506.5 698C545.847 692.377 584.18 696.377 621.5 710C665.903 725.101 704.737 748.935 738 781.5C754.32 798.462 766.32 818.129 774 840.5C775.712 846.057 777.045 851.724 778 857.5C778.938 921.223 805.438 971.056 857.5 1007C885.765 1025.76 916.765 1037.42 950.5 1042C973.994 1047.05 994.161 1041.22 1011 1024.5C1018.06 1014.94 1020.72 1004.27 1019 992.5C1017.47 986.28 1013.63 983.78 1007.5 985C1004.5 986 1001.5 987 998.5 988C982.152 995.45 965.485 1002.12 948.5 1008C936.041 1012.12 923.374 1013.12 910.5 1011C901.972 1008.79 895.472 1003.96 891 996.5C889.993 991.889 890.66 987.555 893 983.5C902.21 973.325 913.377 965.825 926.5 961C948.462 951.875 971.296 946.708 995 945.5C999.833 945.667 1004.67 945.833 1009.5 946C1014.6 947.717 1019.6 949.717 1024.5 952C1025.83 952.667 1027.17 952.667 1028.5 952C1031.01 947.157 1030.84 942.324 1028 937.5C1024.17 932.503 1020.83 927.17 1018 921.5C1017.54 916.92 1019.38 913.42 1023.5 911C1034.48 908.432 1043.64 902.932 1051 894.5C1055.27 886.012 1055.6 877.346 1052 868.5C1044.27 851.379 1036.27 834.379 1028 817.5C1017.85 795.442 1012.68 772.276 1012.5 748C1011.42 728.918 1016.92 712.084 1029 697.5C1037.07 690.548 1045.24 683.714 1053.5 677C1068.94 659.653 1074.44 639.486 1070 616.5C1064.95 587.527 1058.62 558.86 1051 530.5C1049.25 519.819 1044.08 511.319 1035.5 505C1009.56 488.697 982.228 475.03 953.5 464C855.802 438.103 793.302 473.603 766 570.5C764.033 587.18 764.033 603.847 766 620.5C768.547 628.368 772.714 635.201 778.5 641C784.153 645.158 790.486 646.992 797.5 646.5C819.063 643.255 840.729 640.921 862.5 639.5C898.567 638.686 930.234 649.853 957.5 673C964.81 679.972 970.977 687.805 976 696.5C978.654 705.843 976.154 713.343 968.5 719C965.634 720.457 962.634 720.79 959.5 720C955.941 718.772 952.608 717.106 949.5 715C934.127 702.974 917.46 692.974 899.5 685C858.042 669.428 820.376 675.761 786.5 704C778.95 711.048 771.95 718.548 765.5 726.5C766.333 726.833 767.167 727.167 768 727.5C809.734 718.009 851.901 715.176 894.5 719C913.125 719.642 928.625 726.809 941 740.5C950.675 755.657 947.841 767.823 932.5 777C925.764 780.101 918.764 782.435 911.5 784C894.167 784.667 876.833 784.667 859.5 784C838.097 782.31 818.43 775.644 800.5 764C795.883 760.727 792.883 756.394 791.5 751C792.138 747.707 794.138 746.707 797.5 748C800.833 752.667 804.833 756.667 809.5 760C832.467 771.427 856.801 776.927 882.5 776.5C900.082 777.889 916.748 774.722 932.5 767C938.485 760.267 938.985 753.1 934 745.5C925.66 736.745 915.494 731.245 903.5 729C870.812 724.356 838.145 724.689 805.5 730C788.035 732.46 770.702 735.626 753.5 739.5C752.558 739.392 751.725 739.059 751 738.5C750.333 736.5 750.333 734.5 751 732.5C770.985 700.084 799.485 679.251 836.5 670C865.937 665.406 893.603 670.406 919.5 685C932.833 693.667 946.167 702.333 959.5 711C964.985 711.693 967.985 709.193 968.5 703.5C967.398 698.63 965.232 694.297 962 690.5C929.32 655.605 889.153 641.771 841.5 649C827.552 651.624 813.552 653.79 799.5 655.5C780.52 655.087 767.353 646.087 760 628.5C753.065 606.305 752.732 583.972 759 561.5C785.81 472.167 845.31 435.333 937.5 451C953.793 454.542 969.459 459.875 984.5 467C1003.31 476.238 1021.65 486.238 1039.5 497C1043.33 500.167 1047.17 503.333 1051 506.5C1053.53 510.904 1055.53 515.571 1057 520.5C1066.19 551.745 1073.53 583.412 1079 615.5C1084.68 650.285 1072.85 677.118 1043.5 696C1023.81 713.889 1016.64 736.056 1022 762.5C1024.63 782.725 1030.3 802.058 1039 820.5C1046.27 834.711 1053.27 849.044 1060 863.5C1068.4 885.644 1062.23 902.144 1041.5 913C1036.77 914.782 1032.27 916.949 1028 919.5C1027.33 920.5 1027.33 921.5 1028 922.5C1034.21 928.581 1038.04 935.915 1039.5 944.5C1039.04 951.92 1036.04 958.086 1030.5 963C1025.22 964.554 1020.89 962.887 1017.5 958C1014.38 956.107 1011.05 954.774 1007.5 954C973.995 952.543 942.661 960.209 913.5 977C893.348 990.566 895.348 999.566 919.5 1004C923.5 1004.67 927.5 1004.67 931.5 1004C939.271 1002.08 946.938 999.743 954.5 997C970.703 990.267 987.037 983.933 1003.5 978C1017.1 974.039 1025.27 978.873 1028 992.5C1029.81 1018.06 1018.97 1035.89 995.5 1046C981.25 1051.1 966.583 1052.76 951.5 1051C886.857 1042.12 835.357 1011.62 797 959.5C787.277 943.675 780.277 926.675 776 908.5C772.586 889.934 769.919 871.267 768 852.5C762.133 828.424 750.799 807.424 734 789.5C684.215 740.538 624.381 712.038 554.5 704C525.269 698.807 499.269 705.473 476.5 724C460.129 740.119 453.962 759.619 458 782.5C461.819 809.643 473.653 832.476 493.5 851C506.887 858.072 520.887 859.405 535.5 855C542.231 852.867 548.898 850.534 555.5 848C563.543 845.769 568.71 848.602 571 856.5C575.251 904.298 593.251 945.965 625 981.5C654.851 1012.7 688.684 1038.54 726.5 1059C773.736 1084.46 823.403 1103.46 875.5 1116C911.779 1124.73 947.445 1122.73 982.5 1110C998.154 1104.01 1009.65 1093.51 1017 1078.5C1020.03 1058.66 1024.03 1038.99 1029 1019.5C1039.87 985.555 1051.54 951.889 1064 918.5C1084.79 863.065 1094.29 805.732 1092.5 746.5C1092.37 723.959 1091.37 701.459 1089.5 679C1089.67 673.5 1089.83 668 1090 662.5C1093.14 650.95 1095.8 639.283 1098 627.5C1098.68 617.137 1098.35 606.804 1097 596.5C1085.14 544.044 1074.14 491.377 1064 438.5C1059.47 426.815 1050.97 422.315 1038.5 425C1036.12 425.511 1033.79 426.178 1031.5 427C1026.28 430.779 1020.61 433.779 1014.5 436C1009.22 437.359 1003.89 437.692 998.5 437C984.271 431.923 970.271 426.256 956.5 420C898.548 398.479 840.215 397.145 781.5 416C756.667 425.076 734.001 437.743 713.5 454C699.871 465.294 686.537 476.961 673.5 489C634.769 526.401 595.436 563.067 555.5 599C507.046 638.839 451.379 662.172 388.5 669C351.132 673.782 313.799 678.782 276.5 684C195.576 701.375 161.409 750.875 174 832.5C176.555 844.386 179.888 856.053 184 867.5C185.475 872.063 186.308 876.73 186.5 881.5C182.574 881.953 179.408 880.62 177 877.5C157.899 848.202 145.899 816.202 141 781.5C136.061 739.556 147.061 702.556 174 670.5C203.77 639.015 239.27 616.182 280.5 602C301.318 595.061 321.985 587.728 342.5 580C357.937 572.867 372.604 564.534 386.5 555C431.945 518.901 475.612 480.567 517.5 440C544.664 414.827 572.997 391.161 602.5 369C637.592 343.784 675.592 323.784 716.5 309C776.898 290.385 837.898 288.385 899.5 303C954.222 317.698 1005.55 340.031 1053.5 370C1057.47 372.659 1061.81 374.159 1066.5 374.5C1051.95 329.78 1024.29 295.613 983.5 272C909.794 229.741 830.461 210.741 745.5 215C687.229 220.155 634.562 239.822 587.5 274C571.649 286.762 555.982 299.762 540.5 313C492.878 356.801 444.878 400.135 396.5 443C361.632 473.102 324.298 499.769 284.5 523C258.849 537.827 231.515 548.161 202.5 554C194.833 554.667 187.167 554.667 179.5 554C178.14 552.062 178.473 550.396 180.5 549C208.109 532.735 233.442 513.401 256.5 491C278.487 469.022 298.987 445.855 318 421.5C353.916 370.358 392.25 321.024 433 273.5C474.447 226.567 522.613 188.4 577.5 159C660.283 119.073 745.95 111.74 834.5 137C871.796 147.647 907.796 161.647 942.5 179C945.089 180.314 947.756 180.981 950.5 181C875.76 124.878 791.427 96.2117 697.5 95C661.632 91.1101 626.965 95.7768 593.5 109C569.769 119.361 547.436 132.028 526.5 147C505.582 163.247 485.249 180.247 465.5 198C416.508 245.986 369.342 295.486 324 346.5C285.714 388.491 244.214 426.658 199.5 461C172.901 479.97 144.234 495.303 113.5 507C90.0291 514.134 66.0291 518.468 41.5001 520C70.5856 550.883 105.252 573.217 145.5 587C165.561 591.525 185.894 593.359 206.5 592.5C207.145 595.547 206.145 597.713 203.5 599C174.347 603.02 146.347 599.02 119.5 587C82.8059 569.974 51.6392 545.807 26.0001 514.5C25.2507 513.365 25.4174 512.365 26.5001 511.5C27.7947 510.902 29.128 510.402 30.5001 510C60.0736 511.347 88.7402 507.014 116.5 497C156.407 481.063 192.407 459.063 224.5 431C257.907 401.929 289.74 371.096 320 338.5C366.731 286.099 415.231 235.266 465.5 186C489.109 163.714 514.442 143.714 541.5 126C573.782 105.182 608.782 91.6821 646.5 85.5Z" fill="currentColor"/>
</g>
<defs>
<clipPath id="clip0_22_41">
<rect width="1172" height="1196" fill="currentColor"/>
</clipPath>
</defs>
</svg>
